<svg width="280" height="280" viewBox="0 0 280 280" fill="none" xmlns="http://www.w3.org/2000/svg">
<rect x="0.7" y="0.7" width="278.6" height="278.6" rx="139.3" fill="#F7F9FD"/>
<rect x="0.7" y="0.7" width="278.6" height="278.6" rx="139.3" stroke="#D3D8E3" stroke-width="1.4"/>
<g clip-path="url(#clip0_5247_57296)">
<path d="M82.6916 56.7H151.498C154.536 56.7 156.994 59.163 156.994 62.2151V171.894C156.994 174.946 154.536 177.409 151.498 177.409H68.9156C65.8785 177.409 63.4201 174.946 63.4201 171.894V76.0347C63.4201 74.5426 63.9995 73.1836 65.0381 72.1417L78.814 58.3222C79.8525 57.2804 81.2062 56.7 82.6916 56.7Z" stroke="#0D1140" stroke-width="1.4"/>
<path d="M85.0664 155.763H134.549" stroke="#0D1140" stroke-width="1.4"/>
<path d="M85.0664 149.378H134.549" stroke="#0D1140" stroke-width="1.4"/>
<path d="M85.0664 143.791H134.549" stroke="#0D1140" stroke-width="1.4"/>
<path d="M85.0664 137.406H134.549" stroke="#0D1140" stroke-width="1.4"/>
<path d="M85.0664 131.819H134.549" stroke="#0D1140" stroke-width="1.4"/>
<path d="M85.0664 125.435H134.549" stroke="#0D1140" stroke-width="1.4"/>
<path d="M85.0664 119.848H134.549" stroke="#0D1140" stroke-width="1.4"/>
<path d="M85.0664 113.463H134.549" stroke="#0D1140" stroke-width="1.4"/>
<path d="M85.0664 113.463H134.549" stroke="#0D1140" stroke-width="1.4"/>
<path d="M85.0664 107.079H134.549" stroke="#0D1140" stroke-width="1.4"/>
<path d="M85.0664 101.492H134.549" stroke="#0D1140" stroke-width="1.4"/>
<path d="M85.0664 95.1069H134.549" stroke="#0D1140" stroke-width="1.4"/>
<path d="M109.807 75.9526L134.548 75.9526" stroke="#0D1140" stroke-width="1.4"/>
<path d="M85.865 56V73.3587C85.865 76.5411 83.2612 79.1449 80.0788 79.1449H62.7201" stroke="#0D1140" stroke-width="1.4" stroke-miterlimit="10"/>
<path d="M204.311 222.084L175.5 193.273C173.504 191.278 173.504 188.005 175.5 185.93L180.049 181.381C182.044 179.386 185.316 179.386 187.391 181.381L216.203 210.193C218.198 212.188 218.198 215.46 216.203 217.535L211.654 222.084C209.579 224.08 206.306 224.08 204.311 222.084Z" fill="#F7F9FD" stroke="#0D1140" stroke-width="1.4" stroke-miterlimit="10"/>
<path d="M153.632 210.273C181.621 210.273 204.311 187.583 204.311 159.593C204.311 131.604 181.621 108.914 153.632 108.914C125.642 108.914 102.952 131.604 102.952 159.593C102.952 187.583 125.642 210.273 153.632 210.273Z" fill="#F7F9FD" stroke="#0D1140" stroke-width="1.4" stroke-miterlimit="10"/>
<path d="M153.631 197.742C174.701 197.742 191.781 180.662 191.781 159.593C191.781 138.524 174.701 121.444 153.631 121.444C132.562 121.444 115.482 138.524 115.482 159.593C115.482 180.662 132.562 197.742 153.631 197.742Z" stroke="#0D1140" stroke-width="1.4" stroke-miterlimit="10"/>
</g>
<defs>
<clipPath id="clip0_5247_57296">
<rect width="168" height="168" fill="white" transform="translate(56 56)"/>
</clipPath>
</defs>
</svg>
