<svg width="60" height="60" viewBox="0 0 60 60" fill="none" xmlns="http://www.w3.org/2000/svg">
<circle cx="30" cy="30" r="30" fill="currentColor"/>
<path d="M15.3 28.4375C17.6166 28.4375 19.5 26.5877 19.5 24.3125C19.5 22.0373 17.6166 20.1875 15.3 20.1875C12.9834 20.1875 11.1 22.0373 11.1 24.3125C11.1 26.5877 12.9834 28.4375 15.3 28.4375ZM44.7 28.4375C47.0166 28.4375 48.9 26.5877 48.9 24.3125C48.9 22.0373 47.0166 20.1875 44.7 20.1875C42.3834 20.1875 40.5 22.0373 40.5 24.3125C40.5 26.5877 42.3834 28.4375 44.7 28.4375ZM46.8 30.5H42.6C41.445 30.5 40.4016 30.9576 39.6403 31.6988C42.285 33.1232 44.1619 35.6949 44.5687 38.75H48.9C50.0616 38.75 51 37.8283 51 36.6875V34.625C51 32.3498 49.1166 30.5 46.8 30.5ZM30 30.5C34.0622 30.5 37.35 27.2709 37.35 23.2812C37.35 19.2916 34.0622 16.0625 30 16.0625C25.9378 16.0625 22.65 19.2916 22.65 23.2812C22.65 27.2709 25.9378 30.5 30 30.5ZM35.04 32.5625H34.4953C33.1303 33.207 31.6144 33.5938 30 33.5938C28.3856 33.5938 26.8762 33.207 25.5047 32.5625H24.96C20.7862 32.5625 17.4 35.8883 17.4 39.9875V41.8438C17.4 43.5518 18.8109 44.9375 20.55 44.9375H39.45C41.1891 44.9375 42.6 43.5518 42.6 41.8438V39.9875C42.6 35.8883 39.2137 32.5625 35.04 32.5625ZM20.3597 31.6988C19.5984 30.9576 18.555 30.5 17.4 30.5H13.2C10.8834 30.5 9 32.3498 9 34.625V36.6875C9 37.8283 9.93844 38.75 11.1 38.75H15.4247C15.8381 35.6949 17.715 33.1232 20.3597 31.6988Z" fill="white"/>
</svg>
