<svg width="24" height="24" viewBox="0 0 24 24" fill="none" xmlns="http://www.w3.org/2000/svg">
<g clip-path="url(#clip0_3096_2255)">
<path d="M21 16.014L16.707 11.721C16.316 11.33 15.683 11.33 15.293 11.721L11 16.014" stroke="#343A40" stroke-width="1.5" stroke-linecap="round" stroke-linejoin="round"/>
<path d="M18 21.014H6C4.343 21.014 3 19.671 3 18.014V6.01401C3 4.35701 4.343 3.01401 6 3.01401H18C19.657 3.01401 21 4.35701 21 6.01401V18.014C21 19.671 19.657 21.014 18 21.014Z" stroke="#343A40" stroke-width="1.5" stroke-linecap="round" stroke-linejoin="round"/>
<path d="M16.0003 21.014L9.70729 14.721C9.31629 14.33 8.68329 14.33 8.29329 14.721L3.44629 19.568" stroke="#343A40" stroke-width="1.5" stroke-linecap="round" stroke-linejoin="round"/>
<path d="M9.26516 8.74884C9.41161 8.89529 9.41161 9.13273 9.26516 9.27917C9.11872 9.42562 8.88128 9.42562 8.73484 9.27917C8.58839 9.13273 8.58839 8.89529 8.73484 8.74884C8.88128 8.6024 9.11872 8.6024 9.26516 8.74884Z" stroke="#343A40" stroke-width="1.5" stroke-linecap="round" stroke-linejoin="round"/>
</g>
<defs>
<clipPath id="clip0_3096_2255">
<rect width="24" height="24" fill="white"/>
</clipPath>
</defs>
</svg>
