<svg width="21" height="21" viewBox="0 0 21 21" fill="none" xmlns="http://www.w3.org/2000/svg">
<path d="M20 14.6689V17.8889" stroke="#323232" stroke-width="1.5" stroke-linecap="round" stroke-linejoin="round"/>
<path d="M19.9989 6.27689V9.49689C19.5324 9.40274 19.0503 9.43414 18.5999 9.58789C17.7629 9.87406 17.1279 10.5648 16.9129 11.4229C16.5513 12.8377 17.4051 14.2779 18.8199 14.6395C19.033 14.694 19.252 14.7217 19.4719 14.7219C19.6492 14.7216 19.8261 14.7038 19.9999 14.6689V17.8889C19.9999 19.0547 19.0549 19.9999 17.8891 19.9999M17.8891 19.9999C17.889 19.9999 17.8892 19.9999 17.8891 19.9999ZM17.8891 19.9999H14.6688C14.7629 19.5334 14.7315 19.0513 14.5778 18.6009C14.2916 17.7639 13.6008 17.1288 12.7428 16.9139C11.3279 16.5522 9.88779 17.406 9.52614 18.8209C9.47168 19.0339 9.44401 19.253 9.44377 19.4729C9.44407 19.6502 9.46182 19.827 9.49677 20.0009L6.27793 19.9999C5.11236 20.0001 4.16727 19.0555 4.16693 17.8899V14.6699C3.9931 14.7048 3.81624 14.7226 3.63893 14.7229C2.1786 14.7213 0.99602 13.5362 0.99756 12.0759C0.997793 11.856 1.02546 11.637 1.07993 11.4239C1.29486 10.5658 1.9299 9.87506 2.76693 9.58889C3.21731 9.43514 3.70043 9.40373 4.16693 9.49788L4.16593 6.27789C4.16593 5.11211 5.11098 4.16689 6.27677 4.16689M6.27677 4.16689C6.27687 4.16689 6.27666 4.16689 6.27677 4.16689ZM6.27677 4.16689H9.49709C9.46213 3.99305 9.44438 3.8162 9.44409 3.63889C9.4456 2.17856 10.6307 0.99605 12.091 0.99756C12.3109 0.997788 12.5298 1.02543 12.7428 1.07986C13.6006 1.29541 14.2911 1.93022 14.5778 2.76686C14.7316 3.21724 14.763 3.70037 14.6688 4.16686H17.8888C19.0546 4.16672 19.9998 5.11165 19.9999 6.27744M19.9999 6.27744C19.9999 6.27759 19.9999 6.27729 19.9999 6.27744Z" stroke="#323232" stroke-width="1.5" stroke-linecap="round" stroke-linejoin="round"/>
</svg>
