<svg width="200" height="203" viewBox="0 0 200 203" fill="none" xmlns="http://www.w3.org/2000/svg">
<rect x="0.5" y="0.5" width="199" height="201.381" rx="99.5" fill="#F7F9FD"/>
<path d="M99.5812 56.8386V134.276M134.478 55.9392C125.754 54.1404 110.104 52.2517 99.5812 57.5581C88.9683 52.1618 73.4088 54.1404 64.6847 55.9392C60.9972 56.6587 58.1191 60.0764 58.1191 63.9438V124.743C58.1191 129.779 62.706 133.647 67.6527 132.747C76.6466 131.218 90.1375 130.049 99.5812 134.906C109.025 130.139 122.516 131.218 131.51 132.747C136.456 133.557 141.043 129.779 141.043 124.743V63.8539C141.043 60.0764 138.255 56.7487 134.478 55.9392Z" stroke="#0D1140" stroke-miterlimit="10"/>
<path d="M94.1849 127.172C86.72 125.373 77.5462 125.463 66.6635 127.351C65.5842 127.531 64.8647 127.082 64.505 126.812C64.1452 126.542 63.5156 125.822 63.5156 124.743V63.8543C63.5156 62.5951 64.505 61.4259 65.6742 61.1561C71.4303 59.9869 76.8266 59.4473 81.6834 59.4473C86.4502 59.4473 90.6773 59.9869 94.1849 61.1561V127.172Z" fill="#FF0A47"/>
<path d="M104.887 61.1561C108.304 59.9869 112.532 59.4473 117.388 59.4473C122.245 59.4473 127.641 59.9869 133.397 61.1561C134.657 61.4259 135.556 62.5951 135.556 63.8543V124.653C135.556 125.823 134.926 126.452 134.567 126.722C134.207 126.992 133.487 127.441 132.408 127.262C121.525 125.373 112.352 125.373 104.887 127.082V61.1561Z" fill="#FF0A47"/>
<path d="M58.1198 65.4728H57.85C51.5543 65.4728 46.4277 70.5094 46.4277 76.895V131.398C46.4277 137.694 51.4643 142.911 57.94 142.911H88.6992C90.8578 146.778 94.905 149.296 99.6718 149.296C104.439 149.296 108.486 146.688 110.644 142.911H141.224C147.52 142.911 152.736 137.874 152.736 131.398V76.895C152.736 70.5993 147.699 65.3828 141.224 65.3828H140.954" stroke="#0D1140" stroke-miterlimit="10"/>
<path d="M68.9121 66.5523C74.6682 65.6529 82.1332 64.9334 89.1484 65.7429" stroke="#F7F9FD" stroke-miterlimit="10"/>
<path d="M68.9121 71.0504C74.6682 70.151 82.1332 69.4315 89.1484 70.2409" stroke="#F7F9FD" stroke-miterlimit="10"/>
<path d="M68.9121 75.5465C74.6682 74.6471 82.1332 73.9275 89.1484 74.737" stroke="#F7F9FD" stroke-miterlimit="10"/>
<path d="M68.9121 80.0425C74.6682 79.1432 82.1332 78.4236 89.1484 79.2331" stroke="#F7F9FD" stroke-miterlimit="10"/>
<path d="M68.9121 84.5406C74.6682 83.6412 82.1332 82.9217 89.1484 83.7311" stroke="#F7F9FD" stroke-miterlimit="10"/>
<path d="M68.9121 89.0367C74.6682 88.1373 82.1332 87.4178 89.1484 88.2272" stroke="#F7F9FD" stroke-miterlimit="10"/>
<path d="M68.9121 93.5347C74.6682 92.6353 82.1332 91.9158 89.1484 92.7253" stroke="#F7F9FD" stroke-miterlimit="10"/>
<path d="M68.9121 98.0308C74.6682 97.1314 82.1332 96.4119 89.1484 97.2214" stroke="#F7F9FD" stroke-miterlimit="10"/>
<path d="M68.9121 102.529C74.6682 101.629 82.1332 100.91 89.1484 101.719" stroke="#F7F9FD" stroke-miterlimit="10"/>
<path d="M110.283 115.658C117.298 114.759 124.763 115.478 130.52 116.468" stroke="#F7F9FD" stroke-miterlimit="10"/>
<path d="M110.283 120.156C117.298 119.257 124.763 119.977 130.52 120.966" stroke="#F7F9FD" stroke-miterlimit="10"/>
<rect x="0.5" y="0.5" width="199" height="201.381" rx="99.5" stroke="#D3D8E3"/>
</svg>
