<svg width="21" height="21" viewBox="0 0 21 21" fill="none" xmlns="http://www.w3.org/2000/svg">
<path d="M8.72656 19.5H3.72656V19.5C2.62199 19.5 1.72656 18.6046 1.72656 17.5V3.5V3.5C1.72656 2.39543 2.62199 1.5 3.72656 1.5H8.72656V1.5C9.83113 1.5 10.7266 2.39543 10.7266 3.5V17.5V17.5C10.7266 18.6046 9.83113 19.5 8.72656 19.5V19.5Z" stroke="#B2BBC4" stroke-width="1.5" stroke-linecap="round" stroke-linejoin="round"/>
<path d="M7.28756 13.9397V13.9397C7.87316 14.5257 7.87286 15.4754 7.28688 16.061C6.70091 16.6466 5.75116 16.6463 5.16556 16.0603C4.58023 15.4746 4.58023 14.5254 5.16556 13.9397V13.9397C5.75116 13.3537 6.70091 13.3534 7.28688 13.939C7.28711 13.9392 7.28734 13.9395 7.28756 13.9397" stroke="#B2BBC4" stroke-width="1.5" stroke-linecap="round" stroke-linejoin="round"/>
<path d="M7.72656 10.5H4.72656" stroke="#B2BBC4" stroke-width="1.5" stroke-linecap="round" stroke-linejoin="round"/>
<path d="M7.72656 7.5H4.72656" stroke="#B2BBC4" stroke-width="1.5" stroke-linecap="round" stroke-linejoin="round"/>
<path d="M17.7266 19.5H12.7266V19.5C11.622 19.5 10.7266 18.6046 10.7266 17.5V3.5V3.5C10.7266 2.39543 11.622 1.5 12.7266 1.5H17.7266V1.5C18.8311 1.5 19.7266 2.39543 19.7266 3.5V17.5V17.5C19.7266 18.6046 18.8311 19.5 17.7266 19.5V19.5Z" stroke="#B2BBC4" stroke-width="1.5" stroke-linecap="round" stroke-linejoin="round"/>
<path d="M16.2876 13.9397V13.9397C16.8732 14.5257 16.8729 15.4754 16.2869 16.061C15.7009 16.6466 14.7512 16.6463 14.1656 16.0603C13.5802 15.4746 13.5802 14.5254 14.1656 13.9397V13.9397C14.7512 13.3537 15.7009 13.3534 16.2869 13.939C16.2871 13.9392 16.2873 13.9395 16.2876 13.9397" stroke="#B2BBC4" stroke-width="1.5" stroke-linecap="round" stroke-linejoin="round"/>
<path d="M16.7266 10.5H13.7266" stroke="#B2BBC4" stroke-width="1.5" stroke-linecap="round" stroke-linejoin="round"/>
<path d="M16.7266 7.5H13.7266" stroke="#B2BBC4" stroke-width="1.5" stroke-linecap="round" stroke-linejoin="round"/>
</svg>
