<svg width="24" height="25" viewBox="0 0 24 25" fill="none" xmlns="http://www.w3.org/2000/svg">
<g clip-path="url(#clip0_7910_18103)">
<path d="M13.6001 12.3L12.399 13.5L10.4001 11.5" stroke="#4AAB53" stroke-width="1.5" stroke-linecap="round" stroke-linejoin="round"/>
<path d="M17.5641 17.8875C18.5837 17.272 19.4326 16.4105 20.0329 15.3819C20.6331 14.3533 20.9657 13.1905 21 12C21 7.85785 16.9706 4.5 12 4.5C7.02942 4.5 3 7.85785 3 12C3 16.1421 7.02942 19.5 12 19.5C12.6976 19.4982 13.3934 19.4282 14.0774 19.2911C15.0261 20.0017 16.0801 20.5594 17.2012 20.9438C17.4017 21.0079 17.6172 21.0067 17.817 20.9407C18.0167 20.8746 18.1904 20.7469 18.3131 20.576C18.4358 20.4051 18.5012 20.1997 18.5 19.9893C18.4987 19.7789 18.4309 19.5743 18.3061 19.4049C17.9748 18.9447 17.7239 18.4316 17.5641 17.8875Z" stroke="#4AAB53" stroke-width="1.5" stroke-linecap="round" stroke-linejoin="round"/>
</g>
<defs>
<clipPath id="clip0_7910_18103">
<rect width="24" height="24" fill="white" transform="matrix(-1 0 0 1 24 0.5)"/>
</clipPath>
</defs>
</svg>
