<svg width="24" height="25" viewBox="0 0 24 25" fill="none" xmlns="http://www.w3.org/2000/svg">
<g clip-path="url(#clip0_7910_18483)">
<path d="M13.25 11.25L10.75 13.75" stroke="#DE0A26" stroke-width="1.5" stroke-linecap="round" stroke-linejoin="round"/>
<path d="M13.25 13.75L10.75 11.25" stroke="#DE0A26" stroke-width="1.5" stroke-linecap="round" stroke-linejoin="round"/>
<path d="M19.5637 17.3388C20.7513 15.4709 21.207 13.2301 20.8432 11.0467C20.4794 8.86327 19.3218 6.89124 17.5927 5.50933C15.8635 4.12741 13.6848 3.43306 11.4749 3.55962C9.26499 3.68617 7.17976 4.62472 5.61968 6.195C4.0596 7.76529 3.13467 9.85659 3.02252 12.0673C2.91037 14.2779 3.61891 16.4521 5.01206 18.1722C6.40522 19.8923 8.38475 21.0371 10.5705 21.3866C12.7562 21.7362 14.9941 21.2659 16.8542 20.066L19.4192 20.4946C19.4977 20.5077 19.5782 20.5019 19.6541 20.4776C19.7299 20.4534 19.7988 20.4113 19.8551 20.355C19.9114 20.2987 19.9535 20.2298 19.9777 20.154C20.002 20.0781 20.0079 19.9976 19.9947 19.9191L19.5637 17.3388Z" stroke="#DE0A26" stroke-width="1.5" stroke-linecap="round" stroke-linejoin="round"/>
</g>
<defs>
<clipPath id="clip0_7910_18483">
<rect width="24" height="24" fill="white" transform="matrix(-1 0 0 1 24 0.5)"/>
</clipPath>
</defs>
</svg>
