<svg width="24" height="25" viewBox="0 0 24 25" fill="none" xmlns="http://www.w3.org/2000/svg">
<path d="M9.5251 11.7539C9.1454 11.7539 8.8316 12.0361 8.782 12.4021L8.7751 12.5039V14.7533C8.7751 15.4919 9.1626 16.1716 9.7876 16.5498L9.936 16.6316L10.4349 16.881C11.3545 17.3408 12.4261 17.3715 13.366 16.973L13.5653 16.881L14.0642 16.6316C14.7249 16.3013 15.1596 15.6507 15.2183 14.9225L15.2251 14.7533V12.5039C15.2251 12.0897 14.8893 11.7539 14.4751 11.7539C14.0954 11.7539 13.7816 12.0361 13.732 12.4021L13.7251 12.5039V14.7533C13.7251 14.9481 13.6308 15.1285 13.4758 15.2401L13.3934 15.2899L12.8945 15.5394C12.3878 15.7927 11.8003 15.8181 11.2774 15.6154L11.1057 15.5394L10.6068 15.2899C10.4325 15.2028 10.3133 15.0377 10.2828 14.8492L10.2751 14.7533V12.5039C10.2751 12.0897 9.9393 11.7539 9.5251 11.7539Z" fill="#2C50EE"/>
<path d="M13.3775 8.08502L16.4387 9.66746C16.937 9.92496 17.25 10.439 17.25 11C17.25 11.5609 16.937 12.075 16.4387 12.3326L13.3775 13.915C12.5134 14.3616 11.4864 14.3616 10.6223 13.915L7.56113 12.3325C7.06283 12.075 6.74983 11.5609 6.74983 11C6.74983 10.439 7.06283 9.92496 7.56123 9.66742L10.6223 8.08502C11.4864 7.63833 12.5134 7.63833 13.3775 8.08502ZM11.3111 9.41751L8.24983 11L11.3111 12.5825C11.7431 12.8058 12.2567 12.8058 12.6887 12.5825L15.7499 11L12.6887 9.41751C12.2567 9.19417 11.7431 9.19417 11.3111 9.41751Z" fill="#2C50EE"/>
<path d="M7.5 10.2598C7.1203 10.2598 6.8065 10.542 6.7569 10.908L6.75 11.0098V12.7468C6.75 13.161 7.0858 13.4968 7.5 13.4968C7.8797 13.4968 8.1935 13.2147 8.2432 12.8486L8.25 12.7468V11.0098C8.25 10.5956 7.9142 10.2598 7.5 10.2598Z" fill="#2C50EE"/>
<path d="M18.2857 5.10868C21.8279 8.11519 22.7379 13.2045 20.4935 17.2423L20.3501 17.4919L20.7344 19.7955C20.801 20.1939 20.671 20.5998 20.3854 20.8854L20.2859 20.9748C20.0097 21.1974 19.6496 21.2936 19.2955 21.2344L17.0111 20.8519L16.7636 20.9966C12.6567 23.3146 7.43263 22.3525 4.42923 18.6443C1.30323 14.7847 1.58703 9.18991 5.08763 5.66647C8.58813 2.14303 14.1809 1.82274 18.0608 4.92351L18.2857 5.10868ZM6.15173 6.72367C3.19093 9.70377 2.95093 14.4358 5.59483 17.7002C8.23883 20.9646 12.9174 21.7129 16.4476 19.4358L16.5453 19.3826C16.6799 19.3218 16.8304 19.3017 16.9777 19.3263L19.1971 19.6969L18.8239 17.4625C18.7934 17.28 18.8314 17.0926 18.9307 16.9365C21.1847 13.3915 20.406 8.71788 17.1244 6.09528C13.8428 3.47267 9.11243 3.74357 6.15173 6.72367Z" fill="#2C50EE"/>
</svg>
