<svg width="446" height="424" viewBox="0 0 446 424" fill="none" xmlns="http://www.w3.org/2000/svg">
<path d="M192.488 250.323C173.947 244.705 158.172 230.94 149.238 214.201C138.873 194.781 137.118 171.871 141.608 150.694C141.741 150.075 141.865 149.435 142.029 148.83C144.236 152.273 146.538 155.633 148.826 159.023C159.382 174.38 171.081 190.39 186.79 200.408C168.464 177.765 155.989 150.797 150.711 122.736C157.195 108.132 166.135 94.624 177 82.8005C176.833 86.7317 176.875 90.7357 177.199 94.7369C179.293 121.246 192.924 145.563 210.064 167.071C200.562 133.593 196.161 98.8632 197.164 64.3849C207.36 56.6496 218.538 50.1214 230.474 45.1302C229.059 49.6619 227.393 54.0856 225.299 58.3421C221.225 66.5659 215.51 74.242 213.92 83.2534C211.723 95.437 217.484 107.692 223.438 118.785C226.502 124.449 229.656 130.081 232.944 135.664C231.624 127.781 230.446 119.87 229.489 111.93C228.634 104.871 227.882 97.7492 228.192 90.6406C228.9 72.8677 235.77 56.1885 243.989 40.1624C251.763 37.7698 259.815 35.9958 268.052 34.9242C262.128 56.4959 260.485 79.2216 263.12 101.516C266.381 78.2782 272.562 55.4474 281.606 33.7632C289.136 33.4188 296.578 33.6768 304.053 34.5185C295.567 54.7352 292.316 77.0512 294.765 98.8913C299.182 76.9718 308.013 55.9606 320.573 37.2708C326.252 38.4404 331.839 39.8909 337.358 41.6144C335.368 46.5031 333.75 51.4807 332.783 56.6686C331.951 61.1136 331.578 65.615 331.484 70.1649C335.768 61.1953 341.115 52.6844 347.435 44.9133C354.337 47.3763 361.117 50.2312 367.649 53.424L192.488 250.323Z" fill="#E6ECEF"/>
<path d="M191.945 249.348C194.372 259.045 205.406 273.254 213.764 279.293C223.116 286.063 233.799 291.31 245.156 293.936C267.362 299.075 290.774 293.969 311.634 285.33C301.116 281.929 291.106 277.132 281.947 271.085C272.495 264.823 264.023 257.314 255.61 249.759C270.271 253.988 285.587 256.864 299.646 262.698C304.628 264.758 309.425 267.183 314.493 269.014C321.328 271.518 328.602 272.898 335.882 273.16C351.09 264.09 364.767 252.725 375.43 239.207C367.051 240.655 358.346 241.056 349.79 241.255C340.206 241.455 330.395 241.415 321.157 238.691C314.163 236.615 307.803 233.073 301.88 228.901C307.196 230.271 312.577 231.295 318.059 231.812C342.313 234.104 365.968 226.138 388.694 217.912C392.412 210.102 395.203 201.91 397.159 193.5C382.698 199.18 367.073 202.333 351.351 202.674C336.944 202.96 322.437 200.93 308.62 196.693C312.876 196.663 317.155 196.378 321.38 196.087C334.825 195.208 348.315 194.313 361.368 191.347C369.378 189.562 377.169 186.99 384.835 184.24C388.65 182.884 392.439 181.463 395.975 179.614C397.328 178.901 398.624 178.11 399.902 177.276C400.893 168.769 401.112 160.071 400.656 151.42C392.15 157.644 382.938 162.835 372.643 165.694C366.322 167.462 359.761 168.326 353.165 168.856C339.71 169.961 326.025 169.813 312.721 167.52C344.914 166.22 376.619 153.928 398.668 132.054C397.623 125.795 396.125 119.873 394.295 114.146C384.467 121.789 372.995 127.551 360.793 131.026C372.585 123.91 382.757 114.408 390.346 103.241C387.8 96.8321 384.904 90.574 381.871 84.2918C375.606 89.0852 368.551 92.9514 361.077 95.7309C367.853 90.4301 373.701 84.0538 378.234 76.915C374.426 69.1795 370.515 61.2581 366.862 52.7728L191.945 249.348Z" fill="#E6ECEF"/>
<path d="M211.181 205.874C208.444 201.762 205.559 197.728 202.969 193.538C197.598 185.251 192.604 176.754 187.815 168.133C183.139 159.471 178.722 150.691 174.799 141.732C170.897 132.765 167.269 123.65 164.64 114.272C167.525 123.582 171.39 132.587 175.52 141.422C179.704 150.262 184.326 158.918 189.214 167.404C194.191 175.858 199.405 184.201 204.978 192.29C207.684 196.389 210.655 200.317 213.486 204.346L220.227 213.276L240.992 190.7C237.3 185.323 233.859 179.806 230.857 174.105C227.497 167.717 224.374 161.217 221.708 154.578C216.3 141.301 211.908 127.681 208.859 113.823C212.436 127.589 217.321 141.031 223.2 154.013C226.094 160.521 229.437 166.866 232.991 173.036C236.048 178.369 239.486 183.442 243.131 188.389L262.934 166.855C258.794 159.188 255.07 151.346 252.564 143.088C249.801 134.328 247.652 125.371 246.519 116.319C245.287 107.277 244.721 98.1683 244.79 89.102C244.903 80.0195 245.536 70.9475 247.021 62.0126C245.728 70.9771 245.301 80.049 245.384 89.1098C245.521 98.176 246.288 107.212 247.7 116.188C249.035 125.168 251.359 133.987 254.265 142.596C256.831 150.436 260.539 157.863 264.593 165.065L285.466 142.376C283.217 135.312 281.216 128.16 280.279 120.845C279.133 113.209 278.556 105.516 278.68 97.8414C278.751 90.1616 279.304 82.5301 280.393 74.9522C281.514 67.3878 283.041 59.8745 285.274 52.5765C283.251 59.9472 281.907 67.4685 280.992 75.0328C280.108 82.6106 279.729 90.2284 279.869 97.8568C279.955 105.48 280.725 113.078 282.055 120.598C283.12 127.347 285.089 133.917 287.295 140.376L309.036 116.728C308.881 106.801 309.656 96.8849 311.432 87.1514C313.235 77.2344 315.847 67.4707 319.641 58.146C316.088 67.5569 313.73 77.3771 312.209 87.2912C310.798 96.4716 310.285 105.773 310.578 115.03L348.605 73.6967L299.869 130.326C305.77 130.296 311.667 130.068 317.475 129.056C320.79 128.674 324.017 127.828 327.302 127.184C330.512 126.295 333.752 125.543 336.887 124.408C343.215 122.341 349.348 119.799 355.224 116.756C361.109 113.734 366.773 110.297 371.97 106.285C366.84 110.396 361.242 113.933 355.41 117.085C349.578 120.236 343.453 122.923 337.156 125.128C334.039 126.306 330.78 127.139 327.552 128.109C324.271 128.826 321.017 129.731 317.684 130.194C311.392 131.406 304.967 131.726 298.537 131.848L279.213 154.299C287.651 155.506 296.149 156.418 304.68 156.154C314.171 156.162 323.619 154.997 332.851 153.117C342.123 151.272 351.172 148.443 359.859 144.853C368.545 141.263 376.923 136.918 384.51 131.521C377.038 137.074 368.731 141.592 360.102 145.384C351.472 149.176 342.427 152.202 333.135 154.252C323.853 156.324 314.342 157.711 304.747 157.889C295.625 158.342 286.514 157.503 277.432 156.356L259.794 176.835L264.423 178.156L268.271 179.266L272.187 180.102L280.033 181.746L287.98 182.882C298.59 184.244 309.339 184.812 320.048 184.404C330.761 184.069 341.45 183.049 352.005 181.26C362.551 179.449 373.011 177.05 383.127 173.686C373.108 177.288 362.701 179.94 352.162 182.02C341.628 184.049 330.902 185.356 320.143 185.955C309.365 186.636 298.508 186.305 287.714 185.183L279.631 184.22L271.619 182.735L267.609 181.982L263.666 180.957L257.599 179.388L246.918 191.799C254.546 195.925 262.358 199.81 270.632 202.686C279.761 206.021 289.148 208.791 298.705 210.782C308.256 212.824 317.945 214.321 327.691 215.203C337.436 216.084 347.238 216.475 357.026 216.079C347.268 216.737 337.442 216.602 327.651 215.985C317.85 215.346 308.084 214.1 298.402 212.303C288.714 210.558 279.165 208.02 269.834 204.883C261.193 202.115 252.973 198.302 244.903 194.164L232.671 208.376C235.619 210.553 238.531 212.769 241.551 214.871C245.445 217.475 249.226 220.243 253.255 222.674C261.115 227.805 269.375 232.346 277.703 236.738C286.095 241.033 294.707 244.926 303.523 248.374C312.33 251.8 321.322 254.862 330.597 256.98C321.276 255.126 312.189 252.272 303.251 249.092C294.318 245.86 285.566 242.191 277.003 238.106C268.504 233.925 260.042 229.581 251.994 224.617C247.87 222.27 243.973 219.593 239.976 217.052C236.843 214.99 233.797 212.823 230.728 210.664L205.691 239.765C209.833 245.425 214.652 250.666 220.172 255.233C226.632 260.4 233.673 264.912 241.118 268.781C248.596 272.54 256.394 275.761 264.391 278.465C272.393 281.118 280.562 283.363 288.896 284.879C280.516 283.627 272.269 281.633 264.15 279.196C256.045 276.73 248.085 273.74 240.396 270.157C232.762 266.455 225.457 262.114 218.643 257.025C213.06 252.679 208.07 247.649 203.677 242.13L159.851 293.043L152.425 286.961L198.32 237.083C193.665 233.938 189.144 230.62 184.997 226.894C179.771 222.419 174.978 217.491 170.552 212.331C166.103 207.178 162.063 201.705 158.467 195.996C154.848 190.296 151.606 184.385 149.058 178.222C151.853 184.295 155.323 190.074 159.153 195.599C162.96 201.132 167.18 206.417 171.79 211.337C176.365 216.295 181.281 220.956 186.575 225.159C190.897 228.747 195.584 231.905 200.374 234.878L218.118 215.6L211.181 205.874Z" fill="#B2C3CE"/>
<path d="M275.5 393.269C275.5 395.484 277.292 397.276 279.5 397.276C281.707 397.276 283.5 395.484 283.5 393.269C283.5 391.054 281.707 389.262 279.5 389.262C277.292 389.262 275.5 391.054 275.5 393.269Z" stroke="#FFC6CF" stroke-width="3"/>
<path d="M9.5 274.62C9.5 277.109 7.48469 279.126 5 279.126C2.51531 279.126 0.5 277.109 0.5 274.62C0.5 272.131 2.51531 270.114 5 270.114C7.48469 270.114 9.5 272.131 9.5 274.62Z" stroke="#FF9CAD"/>
<path d="M86.0001 150.093L87.5418 155.275H92.5308L88.4946 158.479L90.0363 163.661L86.0001 160.458L81.9639 163.661L83.5056 158.479L79.4694 155.275H84.4584L86.0001 150.093Z" fill="#FE1139"/>
<path d="M86.0001 150.093L87.5418 155.275H92.5308L88.4946 158.479L90.0363 163.661L86.0001 160.458L81.9639 163.661L83.5056 158.479L79.4694 155.275H84.4584L86.0001 150.093Z" fill="#FE1139"/>
<path d="M90.5335 151.621L88.6283 156.681L92.6 159.704L87.4508 159.809L85.5457 164.869L84.2685 159.873L79.1193 159.977L83.4791 156.786L82.2019 151.79L86.1737 154.813L90.5335 151.621Z" fill="#FA4261"/>
<path d="M354.047 286.225L354.979 289.359H357.996L355.555 291.296L356.488 294.43L354.047 292.493L351.606 294.43L352.538 291.296L350.098 289.359H353.115L354.047 286.225Z" fill="#FE1139"/>
<path d="M354.047 286.225L354.979 289.359H357.996L355.555 291.296L356.488 294.43L354.047 292.493L351.606 294.43L352.538 291.296L350.098 289.359H353.115L354.047 286.225Z" fill="#FE1139"/>
<path d="M356.789 287.149L355.637 290.209L358.038 292.037L354.925 292.1L353.772 295.16L353 292.139L349.886 292.202L352.523 290.272L351.75 287.251L354.152 289.079L356.789 287.149Z" fill="#FE1139"/>
<path d="M56.5 402.054L58.4271 408.505H64.6634L59.6181 412.492L61.5452 418.943L56.5 414.956L51.4547 418.943L53.3819 412.492L48.3366 408.505H54.5729L56.5 402.054Z" fill="#FC5975"/>
<path d="M56.5 402.054L58.4271 408.505H64.6634L59.6181 412.492L61.5452 418.943L56.5 414.956L51.4547 418.943L53.3819 412.492L48.3366 408.505H54.5729L56.5 402.054Z" fill="#FC5975"/>
<path d="M62.1667 403.955L59.7853 410.254L64.7499 414.017L58.3134 414.147L55.932 420.446L54.3355 414.227L47.899 414.357L53.3488 410.384L51.7523 404.165L56.7169 407.928L62.1667 403.955Z" fill="#FE1139"/>
<path d="M263.84 346.048L182.37 299.514V153.136L263.84 199.67V346.048Z" fill="#2850EE"/>
<path d="M291.21 330.417L263.84 346.047V199.668L291.21 184.038V330.417Z" fill="#B2C3CE"/>
<path d="M286.17 283.795L268.88 293.667V229.485L286.17 219.603V283.795Z" fill="#F9FBFC"/>
<path d="M285.8 187.125L291.21 184.039L209.74 137.505L204.32 140.591L280.38 184.039L263.84 193.476L187.78 150.039L182.37 153.135L263.84 199.669L269.26 196.573L285.8 187.125Z" fill="#E6ECEF"/>
<path d="M285 308.941C285 313.66 281.65 319.387 277.53 321.752C273.4 324.106 270.06 322.197 270.06 317.478C270.06 312.76 273.41 307.032 277.53 304.668C281.66 302.313 285 304.222 285 308.941Z" fill="#F9FBFC"/>
<path d="M204.32 140.59V159.485L263.84 193.475L280.38 184.038L204.32 140.59Z" fill="#B2C3CE"/>
<path d="M194.19 153.699L210.72 144.252L280.38 184.039L263.84 193.477L194.19 153.699Z" fill="#F9FBFC"/>
<path d="M236.48 361.677L155 315.143V168.765L236.48 215.299V361.677Z" fill="url(#paint0_linear_10402_185436)"/>
<path d="M263.84 346.047L236.48 361.678V215.299L263.84 199.669V346.047Z" fill="url(#paint1_linear_10402_185436)"/>
<path d="M258.81 299.424L241.51 309.296V245.114L258.81 235.231V299.424Z" fill="url(#paint2_linear_10402_185436)"/>
<path d="M258.43 196.573L182.37 153.136L176.96 156.222L253.02 199.67L236.48 209.107L160.42 165.669L155 168.766L231.06 212.204L236.48 215.3L263.84 199.67L258.43 196.573Z" fill="#8B8D8F"/>
<path d="M257.64 324.572C257.64 329.291 254.29 335.018 250.17 337.383C246.04 339.737 242.7 337.828 242.7 333.109C242.7 328.39 246.05 322.663 250.17 320.298C254.29 317.944 257.64 319.853 257.64 324.572Z" fill="url(#paint3_linear_10402_185436)"/>
<path d="M176.96 156.221V175.116L236.48 209.106L253.02 199.669L176.96 156.221Z" fill="url(#paint4_linear_10402_185436)"/>
<path d="M166.82 169.328L183.36 159.881L253.02 199.668L236.48 209.106L166.82 169.328Z" fill="#F9FBFC"/>
<path d="M208.84 376.715L127.37 330.181V183.802L208.84 230.337V376.715Z" fill="#2850EE"/>
<path d="M236.21 361.083L208.84 376.713V230.335L236.21 214.705V361.083Z" fill="#B2C3CE"/>
<path d="M231.17 314.461L213.88 324.334V260.152L231.17 250.269V314.461Z" fill="#F9FBFC"/>
<path d="M230.8 217.792L236.21 214.706L154.74 168.172L149.32 171.258L225.38 214.706L208.84 224.143L132.78 180.705L127.37 183.802L208.84 230.336L214.26 227.239L230.8 217.792Z" fill="#E6ECEF"/>
<path d="M230 339.608C230 344.326 226.65 350.054 222.53 352.418C218.4 354.773 215.06 352.864 215.06 348.145C215.06 343.426 218.41 337.699 222.53 335.334C226.66 332.98 230 334.889 230 339.608Z" fill="#F9FBFC"/>
<path d="M149.32 171.257V190.152L208.84 224.142L225.38 214.705L149.32 171.257Z" fill="#B2C3CE"/>
<path d="M139.19 184.366L155.72 174.919L225.38 214.706L208.84 224.144L139.19 184.366Z" fill="#F9FBFC"/>
<path d="M181.48 392.344L100 345.81V199.431L181.48 245.965V392.344Z" fill="url(#paint5_linear_10402_185436)"/>
<path d="M208.84 376.714L181.48 392.344V245.966L208.84 230.336V376.714Z" fill="url(#paint6_linear_10402_185436)"/>
<path d="M203.81 330.09L186.51 339.963V275.781L203.81 265.898V330.09Z" fill="url(#paint7_linear_10402_185436)"/>
<path d="M203.43 227.24L127.37 183.802L121.96 186.889L198.02 230.337L181.48 239.774L105.42 196.336L100 199.433L176.06 242.87L181.48 245.967L208.84 230.337L203.43 227.24Z" fill="#8B8D8F"/>
<path d="M202.64 355.239C202.64 359.957 199.29 365.685 195.17 368.049C191.04 370.404 187.7 368.495 187.7 363.776C187.7 359.057 191.05 353.329 195.17 350.965C199.29 348.611 202.64 350.52 202.64 355.239Z" fill="url(#paint8_linear_10402_185436)"/>
<path d="M121.96 186.888V205.783L181.48 239.773L198.02 230.336L121.96 186.888Z" fill="url(#paint9_linear_10402_185436)"/>
<path d="M111.82 199.995L128.36 190.548L198.02 230.335L181.48 239.772L111.82 199.995Z" fill="#F9FBFC"/>
<path d="M152.84 408.371L71.3701 361.837V215.458L152.84 261.992V408.371Z" fill="#2850EE"/>
<path d="M180.21 392.739L152.84 408.369V261.991L180.21 246.361V392.739Z" fill="#B2C3CE"/>
<path d="M175.17 346.117L157.88 355.99V291.808L175.17 281.925V346.117Z" fill="#F9FBFC"/>
<path d="M174.8 249.448L180.21 246.361L98.7401 199.827L93.3201 202.914L169.38 246.361L152.84 255.799L76.7802 212.361L71.3701 215.457L152.84 261.992L158.26 258.895L174.8 249.448Z" fill="#E6ECEF"/>
<path d="M174 371.264C174 375.982 170.65 381.71 166.53 384.074C162.4 386.429 159.06 384.519 159.06 379.801C159.06 375.082 162.41 369.354 166.53 366.99C170.66 364.636 174 366.545 174 371.264Z" fill="#F9FBFC"/>
<path d="M93.3203 202.913V221.808L152.84 255.798L169.38 246.361L93.3203 202.913Z" fill="#B2C3CE"/>
<path d="M83.1899 216.022L99.72 206.574L169.38 246.362L152.84 255.799L83.1899 216.022Z" fill="#F9FBFC"/>
<path d="M125.48 424L44 377.466V231.087L125.48 277.621V424Z" fill="url(#paint10_linear_10402_185436)"/>
<path d="M152.84 408.37L125.48 424V277.622L152.84 261.991V408.37Z" fill="url(#paint11_linear_10402_185436)"/>
<path d="M147.81 361.746L130.51 371.619V307.437L147.81 297.554V361.746Z" fill="url(#paint12_linear_10402_185436)"/>
<path d="M147.43 258.896L71.37 215.458L65.96 218.545L142.02 261.992L125.48 271.43L49.42 227.992L44 231.088L120.06 274.526L125.48 277.622L152.84 261.992L147.43 258.896Z" fill="#8B8D8F"/>
<path d="M146.64 386.894C146.64 391.613 143.29 397.341 139.17 399.705C135.04 402.06 131.7 400.15 131.7 395.432C131.7 390.713 135.05 384.985 139.17 382.621C143.29 380.266 146.64 382.176 146.64 386.894Z" fill="url(#paint13_linear_10402_185436)"/>
<path d="M65.96 218.544V237.439L125.48 271.429L142.02 261.992L65.96 218.544Z" fill="url(#paint14_linear_10402_185436)"/>
<path d="M55.8203 231.651L72.3603 222.203L142.02 261.991L125.48 271.428L55.8203 231.651Z" fill="#F9FBFC"/>
<defs>
<linearGradient id="paint0_linear_10402_185436" x1="195.74" y1="193.098" x2="195.74" y2="348.721" gradientUnits="userSpaceOnUse">
<stop stop-color="#707C8C"/>
<stop offset="1" stop-color="#505254"/>
</linearGradient>
<linearGradient id="paint1_linear_10402_185436" x1="152.688" y1="210.981" x2="293.885" y2="314.144" gradientUnits="userSpaceOnUse">
<stop stop-color="#69727F"/>
<stop offset="1" stop-color="#8A9098"/>
</linearGradient>
<linearGradient id="paint2_linear_10402_185436" x1="250.16" y1="235.231" x2="250.16" y2="309.296" gradientUnits="userSpaceOnUse">
<stop stop-color="#F9FBFC"/>
<stop offset="1" stop-color="#F9FBFC"/>
</linearGradient>
<linearGradient id="paint3_linear_10402_185436" x1="250.17" y1="319.29" x2="250.17" y2="338.391" gradientUnits="userSpaceOnUse">
<stop stop-color="#F9FBFC"/>
<stop offset="1" stop-color="#F9FBFC"/>
</linearGradient>
<linearGradient id="paint4_linear_10402_185436" x1="176.96" y1="182.664" x2="253.02" y2="182.664" gradientUnits="userSpaceOnUse">
<stop stop-color="#343A40"/>
<stop offset="1" stop-color="#2893EE"/>
</linearGradient>
<linearGradient id="paint5_linear_10402_185436" x1="140.74" y1="223.765" x2="140.74" y2="379.387" gradientUnits="userSpaceOnUse">
<stop stop-color="#707C8C"/>
<stop offset="1" stop-color="#505254"/>
</linearGradient>
<linearGradient id="paint6_linear_10402_185436" x1="97.6877" y1="241.648" x2="238.885" y2="344.811" gradientUnits="userSpaceOnUse">
<stop stop-color="#69727F"/>
<stop offset="1" stop-color="#8A9098"/>
</linearGradient>
<linearGradient id="paint7_linear_10402_185436" x1="195.16" y1="265.898" x2="195.16" y2="339.963" gradientUnits="userSpaceOnUse">
<stop stop-color="#F9FBFC"/>
<stop offset="1" stop-color="#F9FBFC"/>
</linearGradient>
<linearGradient id="paint8_linear_10402_185436" x1="195.17" y1="349.957" x2="195.17" y2="369.058" gradientUnits="userSpaceOnUse">
<stop stop-color="#F9FBFC"/>
<stop offset="1" stop-color="#F9FBFC"/>
</linearGradient>
<linearGradient id="paint9_linear_10402_185436" x1="121.96" y1="213.331" x2="198.02" y2="213.331" gradientUnits="userSpaceOnUse">
<stop stop-color="#343A40"/>
<stop offset="1" stop-color="#2893EE"/>
</linearGradient>
<linearGradient id="paint10_linear_10402_185436" x1="84.74" y1="255.421" x2="84.74" y2="411.043" gradientUnits="userSpaceOnUse">
<stop stop-color="#707C8C"/>
<stop offset="1" stop-color="#505254"/>
</linearGradient>
<linearGradient id="paint11_linear_10402_185436" x1="41.6877" y1="273.303" x2="182.885" y2="376.467" gradientUnits="userSpaceOnUse">
<stop stop-color="#69727F"/>
<stop offset="1" stop-color="#8A9098"/>
</linearGradient>
<linearGradient id="paint12_linear_10402_185436" x1="139.16" y1="297.554" x2="139.16" y2="371.619" gradientUnits="userSpaceOnUse">
<stop stop-color="#F9FBFC"/>
<stop offset="1" stop-color="#F9FBFC"/>
</linearGradient>
<linearGradient id="paint13_linear_10402_185436" x1="139.17" y1="381.613" x2="139.17" y2="400.713" gradientUnits="userSpaceOnUse">
<stop stop-color="#F9FBFC"/>
<stop offset="1" stop-color="#F9FBFC"/>
</linearGradient>
<linearGradient id="paint14_linear_10402_185436" x1="65.96" y1="244.986" x2="142.02" y2="244.986" gradientUnits="userSpaceOnUse">
<stop stop-color="#343A40"/>
<stop offset="1" stop-color="#2893EE"/>
</linearGradient>
</defs>
</svg>
