<svg width="200" height="200" viewBox="0 0 200 200" fill="none" xmlns="http://www.w3.org/2000/svg">
  <rect x="0.5" y="0.5" width="199" height="199" rx="99.5" fill="#F7F9FD"/>
  <rect x="0.5" y="0.5" width="199" height="199" rx="99.5" stroke="#D3D8E3"/>
  <g clip-path="url(#clip0_2404_48436)">
    <path d="M59.0651 40.5H108.213C110.382 40.5 112.138 42.2593 112.138 44.4394V122.782C112.138 124.962 110.382 126.721 108.213 126.721H49.2252C47.0558 126.721 45.2998 124.962 45.2998 122.782V54.3105C45.2998 53.2447 45.7137 52.274 46.4555 51.5298L56.2955 41.6587C57.0373 40.9146 58.0042 40.5 59.0651 40.5Z" stroke="#0D1140"/>
    <path d="M60.7617 111.26H96.1061" stroke="#0D1140"/>
    <path d="M60.7617 106.699H96.1061" stroke="#0D1140"/>
    <path d="M60.7617 102.707H96.1061" stroke="#0D1140"/>
    <path d="M60.7617 98.1465H96.1061" stroke="#0D1140"/>
    <path d="M60.7617 94.1562H96.1061" stroke="#0D1140"/>
    <path d="M60.7617 89.5957H96.1061" stroke="#0D1140"/>
    <path d="M60.7617 85.6055H96.1061" stroke="#0D1140"/>
    <path d="M60.7617 81.0449H96.1061" stroke="#0D1140"/>
    <path d="M60.7617 81.0449H96.1061" stroke="#0D1140"/>
    <path d="M60.7617 76.4844H96.1061" stroke="#0D1140"/>
    <path d="M60.7617 72.4941H96.1061" stroke="#0D1140"/>
    <path d="M60.7617 67.9336H96.1061" stroke="#0D1140"/>
    <path d="M78.4336 54.252L96.1058 54.252" stroke="#0D1140"/>
    <path d="M61.3319 40V52.399C61.3319 54.6722 59.472 56.5321 57.1989 56.5321H44.7998" stroke="#0D1140" stroke-miterlimit="10"/>
    <path d="M145.937 158.631L125.357 138.051C123.932 136.626 123.932 134.289 125.357 132.807L128.606 129.557C130.032 128.132 132.369 128.132 133.851 129.557L154.431 150.137C155.856 151.562 155.856 153.899 154.431 155.381L151.181 158.631C149.699 160.056 147.362 160.056 145.937 158.631Z" fill="#F7F9FD" stroke="#0D1140" stroke-miterlimit="10"/>
    <path d="M109.737 150.194C129.729 150.194 145.936 133.987 145.936 113.994C145.936 94.002 129.729 77.7949 109.737 77.7949C89.7442 77.7949 73.5371 94.002 73.5371 113.994C73.5371 133.987 89.7442 150.194 109.737 150.194Z" fill="#F7F9FD" stroke="#0D1140" stroke-miterlimit="10"/>
    <mask id="mask0_2404_48436" style="mask-type:alpha" maskUnits="userSpaceOnUse" x="82" y="86" width="55" height="56">
      <path d="M109.737 141.245C124.786 141.245 136.986 129.045 136.986 113.996C136.986 98.9461 124.786 86.7461 109.737 86.7461C94.6873 86.7461 82.4873 98.9461 82.4873 113.996C82.4873 129.045 94.6873 141.245 109.737 141.245Z" fill="#D9D9D9"/>
    </mask>
    <g mask="url(#mask0_2404_48436)">
      <path d="M109.6 149.2C118.878 149.2 126.4 141.678 126.4 132.4C126.4 123.121 118.878 115.6 109.6 115.6C100.321 115.6 92.7998 123.121 92.7998 132.4C92.7998 141.678 100.321 149.2 109.6 149.2Z" fill="#FF0A47" stroke="white" stroke-miterlimit="10"/>
      <path d="M109.899 115.6C114.042 115.6 117.399 112.242 117.399 108.1C117.399 103.957 114.042 100.6 109.899 100.6C105.757 100.6 102.399 103.957 102.399 108.1C102.399 112.242 105.757 115.6 109.899 115.6Z" fill="#FF0A47" stroke="white" stroke-miterlimit="10"/>
    </g>
    <path d="M109.737 141.245C124.786 141.245 136.986 129.045 136.986 113.996C136.986 98.9461 124.786 86.7461 109.737 86.7461C94.6873 86.7461 82.4873 98.9461 82.4873 113.996C82.4873 129.045 94.6873 141.245 109.737 141.245Z" stroke="#0D1140" stroke-miterlimit="10"/>
  </g>
  <defs>
    <clipPath id="clip0_2404_48436">
      <rect width="120" height="120" fill="white" transform="translate(40 40)"/>
    </clipPath>
  </defs>
</svg>
