<svg width="24" height="24" viewBox="0 0 24 24" fill="none" xmlns="http://www.w3.org/2000/svg">
<path d="M6.25 12.5C6.25 13.4665 5.4665 14.25 4.5 14.25C3.5335 14.25 2.75 13.4665 2.75 12.5C2.75 11.5335 3.5335 10.75 4.5 10.75C5.4665 10.75 6.25 11.5335 6.25 12.5ZM14.25 12.5C14.25 13.4665 13.4665 14.25 12.5 14.25C11.5335 14.25 10.75 13.4665 10.75 12.5C10.75 11.5335 11.5335 10.75 12.5 10.75C13.4665 10.75 14.25 11.5335 14.25 12.5ZM22.25 12.5C22.25 13.4665 21.4665 14.25 20.5 14.25C19.5335 14.25 18.75 13.4665 18.75 12.5C18.75 11.5335 19.5335 10.75 20.5 10.75C21.4665 10.75 22.25 11.5335 22.25 12.5Z" stroke="#B2BBC4" stroke-width="1.5"/>
</svg>
